<svg xmlns="http://www.w3.org/2000/svg" width="711.917" height="627.872" viewBox="0 0 711.917 627.872">
  <g id="undraw_online_ad_re_ol62" transform="matrix(0.799, -0.602, 0.602, 0.799, -131.622, 331.333)">
    <path id="Path_765" data-name="Path 765" d="M722.082,271.095H531.693v-3.924h-86.33v3.924H254.189a12.879,12.879,0,0,0-12.879,12.879h0v260.7a12.879,12.879,0,0,0,12.879,12.879H722.082a12.879,12.879,0,0,0,12.879-12.879v-260.7a12.879,12.879,0,0,0-12.878-12.878Z" transform="translate(-115.582 -215.31)" fill="#3f3d56"/>
    <rect id="Rectangle_125" data-name="Rectangle 125" width="459.116" height="258.989" transform="translate(142.996 78.544)" fill="#e6e6e6"/>
    <rect id="Rectangle_130" data-name="Rectangle 130" width="420.332" height="223.863" transform="translate(162.466 92.24)" fill="#fff"/>
    <circle id="Ellipse_120" data-name="Ellipse 120" cx="4.709" cy="4.709" r="4.709" transform="translate(367.452 62.064)" fill="#a33dc7"/>
    <path id="Path_766" data-name="Path 766" d="M740.66,649.694H695.853v-3.229a.64.64,0,0,0-.64-.64H679.851a.64.64,0,0,0-.64.64h0v3.229h-9.6v-3.229a.64.64,0,0,0-.64-.64H653.607a.64.64,0,0,0-.64.64h0v3.229h-9.6v-3.229a.64.64,0,0,0-.64-.64H627.362a.64.64,0,0,0-.64.64h0v3.229h-9.6v-3.229a.64.64,0,0,0-.64-.64H601.119a.64.64,0,0,0-.64.64h0v3.229h-9.6v-3.229a.64.64,0,0,0-.64-.64H574.875a.64.64,0,0,0-.64.64h0v3.229h-9.6v-3.229a.64.64,0,0,0-.64-.64H548.634a.64.64,0,0,0-.64.64h0v3.229h-9.6v-3.229a.64.64,0,0,0-.64-.64H417.411a.64.64,0,0,0-.64.64h0v3.229h-9.6v-3.229a.64.64,0,0,0-.64-.64H391.167a.64.64,0,0,0-.64.64h0v3.229h-9.6v-3.229a.64.64,0,0,0-.64-.64H364.923a.64.64,0,0,0-.64.64h0v3.229h-9.6v-3.229a.64.64,0,0,0-.64-.64H338.679a.64.64,0,0,0-.64.64h0v3.229h-9.6v-3.229a.64.64,0,0,0-.64-.64H312.435a.64.64,0,0,0-.64.64h0v3.229h-9.6v-3.229a.64.64,0,0,0-.64-.64H286.191a.64.64,0,0,0-.64.64h0v3.229h-9.6v-3.229a.64.64,0,0,0-.64-.64H259.944a.64.64,0,0,0-.64.64h0v3.229H229.862A15.362,15.362,0,0,0,214.5,665.056V672a15.362,15.362,0,0,0,15.362,15.362h510.8A15.362,15.362,0,0,0,756.022,672v-6.946a15.362,15.362,0,0,0-15.362-15.362Z" transform="translate(-108.391 -316.87)" fill="#3f3d56"/>
    <rect id="Rectangle_126" data-name="Rectangle 126" width="185.874" height="195.387" transform="translate(279.696 107.941)" fill="#e6e6e6"/>
    <rect id="Rectangle_128" data-name="Rectangle 128" width="776.426" height="1.464" transform="translate(0 369.843)" fill="#e6e6e6"/>
    <path id="Path_776" data-name="Path 776" d="M1017.552,627.069c10.52,11.289,11.064,27.881,11.064,27.881s-16.513-1.711-27.033-13-11.064-27.881-11.064-27.881S1007.029,615.781,1017.552,627.069Z" transform="translate(-316.529 -308.352)" fill="#a33dc7"/>
    <path id="Path_777" data-name="Path 777" d="M1062.491,646.005c-11.289,10.52-27.881,11.064-27.881,11.064s1.711-16.513,13-27.033,27.881-11.064,27.881-11.064S1073.783,635.485,1062.491,646.005Z" transform="translate(-328.355 -309.667)" fill="#a33dc7"/>
    <path id="Path_778" data-name="Path 778" d="M1048.792,691.774h-41.521a4.244,4.244,0,0,1-3.819-2.389l-9.04-18.582a4.244,4.244,0,0,1,3.819-6.1h59.6a4.244,4.244,0,0,1,3.819,6.1l-9.04,18.583a4.244,4.244,0,0,1-3.819,2.389Z" transform="translate(-317.458 -321.932)" fill="#e5e5e5"/>
    <path id="Path_779" data-name="Path 779" d="M120.549,627.069c10.52,11.289,11.064,27.881,11.064,27.881s-16.513-1.711-27.033-13S93.516,614.07,93.516,614.07,110.029,615.781,120.549,627.069Z" transform="translate(-75.941 -308.352)" fill="#e5e5e5"/>
    <path id="Path_780" data-name="Path 780" d="M142.791,691.774H101.271a4.244,4.244,0,0,1-3.819-2.389L88.412,670.8a4.244,4.244,0,0,1,3.819-6.1h59.6a4.244,4.244,0,0,1,3.819,6.1l-9.04,18.583a4.244,4.244,0,0,1-3.819,2.389Z" transform="translate(-74.457 -321.932)" fill="#e5e5e5"/>
    <circle id="Ellipse_127" data-name="Ellipse 127" cx="24.703" cy="24.703" r="24.703" transform="translate(370.357 113.846)" fill="#a0616a"/>
    <path id="Path_803" data-name="Path 803" d="M531.686,562.781l15.953-100.428a38.076,38.076,0,0,1,48.282-30.575h0a37.961,37.961,0,0,1,26.755,43.512l-16.685,89.687Z" transform="translate(-193.464 -259.049)" fill="#a33dc7"/>
    <path id="Path_804" data-name="Path 804" d="M612.881,618.559a10.114,10.114,0,0,0,1.756-15.409l16.491-31.934L612.557,573.2,599.744,603.22a10.172,10.172,0,0,0,13.136,15.34Z" transform="translate(-211.001 -296.858)" fill="#a0616a"/>
    <path id="Path_805" data-name="Path 805" d="M619.763,565.51a4.532,4.532,0,0,1-2.44-1.158l-6.31-5.83a4.541,4.541,0,0,1-1.1-5.083l12.61-29.89-1.789-59.059a14.58,14.58,0,1,1,28.893,3.941h0l3.059,37.126a46.642,46.642,0,0,1-8.989,31.578l-19.665,26.585a4.531,4.531,0,0,1-3.213,1.814A4.481,4.481,0,0,1,619.763,565.51Z" transform="translate(-214.352 -264.851)" fill="#a33dc7"/>
    <path id="Path_806" data-name="Path 806" d="M414.894,362.82a10.114,10.114,0,0,0,13.5,7.626l22.978,27.637,5.415-17.875-22.65-23.5a10.172,10.172,0,0,0-19.246,6.116Z" transform="translate(-162.092 -237.729)" fill="#a0616a"/>
    <path id="Path_807" data-name="Path 807" d="M439.32,380.794a4.534,4.534,0,0,1,2.018-1.8l7.83-3.537a4.541,4.541,0,0,1,5.109.971L476.885,399.7l55.083,21.379a14.58,14.58,0,1,1-14.895,25.07h0l-35.38-11.659a46.642,46.642,0,0,1-25.574-20.59l-16.814-28.474a4.531,4.531,0,0,1-.418-3.666,4.481,4.481,0,0,1,.435-.963Z" transform="translate(-168.518 -244.247)" fill="#a33dc7"/>
    <path id="Path_808" data-name="Path 808" d="M629.578,502.685l-1.005,32.185-18.528,32.2,15.471-35.88Z" transform="translate(-214.481 -278.478)" opacity="0.1"/>
    <path id="Path_696" data-name="Path 696" d="M582.508,360.245c2.548,3.016,6.86,3.866,10.838,4.215,8.078.708,19.825-.439,27.719-2.263.563,5.461-.973,11.349,2.244,15.842a73.544,73.544,0,0,0,2.613-16.672,15.97,15.97,0,0,0-.923-7.141A6.567,6.567,0,0,0,619.4,350.1a14.022,14.022,0,0,1,6.255-2.674l-7.815-3.927,2.007-2.061-14.15-.866,4.1-2.6a88.87,88.87,0,0,0-18.617-.585c-2.883.212-5.9.618-8.234,2.289s-3.686,4.991-2.236,7.444a10.808,10.808,0,0,0-8.237,6.536,17.445,17.445,0,0,0-.625,8.387,59.451,59.451,0,0,0,3.117,13.187" transform="translate(-204.178 -234.077)" fill="#2f2e41"/>
    <path id="Path_138" data-name="Path 138" d="M641.658,260.584l-225.1,51.968a4.283,4.283,0,0,1-5.131-3.206L398.54,253.509a4.283,4.283,0,0,1,3.206-5.131l225.1-51.968a4.283,4.283,0,0,1,5.131,3.206l12.891,55.837a4.283,4.283,0,0,1-3.206,5.13Z" transform="translate(-157.723 -196.301)" fill="#fff"/>
    <path id="Path_138-2" data-name="Path 138" d="M641.658,260.584l-225.1,51.968a4.283,4.283,0,0,1-5.131-3.206L398.54,253.509a4.283,4.283,0,0,1,3.206-5.131l225.1-51.968a4.283,4.283,0,0,1,5.131,3.206l12.891,55.837a4.283,4.283,0,0,1-3.206,5.13ZM402.131,250.046a2.57,2.57,0,0,0-1.924,3.079L413.1,308.962a2.569,2.569,0,0,0,3.079,1.924l225.1-51.968a2.569,2.569,0,0,0,1.924-3.079L630.306,200a2.569,2.569,0,0,0-3.079-1.924Z" transform="translate(-157.723 -196.301)" fill="#e6e6e6"/>
    <path id="Path_139" data-name="Path 139" d="M509.394,258.192a2.9,2.9,0,0,0,1.3,5.662l.01,0,133.414-30.8a2.9,2.9,0,0,0-1.307-5.66Z" transform="translate(-186.88 -204.62)" fill="#e6e6e6"/>
    <path id="Path_140" data-name="Path 140" d="M514.751,287.827a2.9,2.9,0,1,0,1.3,5.662l.01,0,57.408-13.254a2.9,2.9,0,0,0-1.3-5.662l-.01,0Z" transform="translate(-188.317 -217.275)" fill="#e6e6e6"/>
    <g id="Group_45" data-name="Group 45" transform="translate(268.615 56.354)">
      <circle id="Ellipse_18" data-name="Ellipse 18" cx="17.427" cy="17.427" r="17.427" fill="#a33dc7"/>
      <path id="Path_395" data-name="Path 395" d="M455.92,302.857a2.7,2.7,0,0,1-1.7-.161l-.033-.015-7.012-3.183a2.719,2.719,0,1,1,2.252-4.951l4.544,2.069,6.374-14.006a2.717,2.717,0,0,1,3.6-1.347h0l-.038.091.04-.092a2.72,2.72,0,0,1,1.347,3.6l-7.5,16.477a2.719,2.719,0,0,1-1.868,1.519Z" transform="translate(-438.983 -275.378)" fill="#fff"/>
    </g>
  </g>
</svg>
